<?xml version="1.0" standalone="no"?>
<!DOCTYPE svg PUBLIC "-//W3C//DTD SVG 20010904//EN"
 "http://www.w3.org/TR/2001/REC-SVG-20010904/DTD/svg10.dtd">
<svg version="1.0" xmlns="http://www.w3.org/2000/svg"
 width="200.000000pt" height="200.000000pt" viewBox="0 0 200.000000 200.000000"
 preserveAspectRatio="xMidYMid meet">
<metadata>
Created by potrace 1.16, written by Peter Selinger 2001-2019
</metadata>
<g transform="translate(0.000000,200.000000) scale(0.100000,-0.100000)"
fill="#ffffff" stroke="none">
<path d="M800 1838 c0 -11 -11 -20 -27 -24 -39 -10 -141 -61 -182 -92 -24 -18
-45 -25 -68 -24 -38 3 -41 -5 -12 -42 22 -28 44 -34 52 -13 4 8 6 7 6 -3 1 -9
-4 -21 -11 -28 -8 -8 -8 -12 -1 -12 17 0 36 28 29 45 -7 20 94 86 182 117 65
24 74 38 47 74 -13 17 -14 17 -15 2z"/>
<path d="M1373 1759 l-27 -42 24 -16 c32 -22 133 -120 153 -150 12 -18 22 -22
39 -18 13 4 24 14 25 24 1 10 3 25 5 32 2 8 -5 17 -15 19 -16 3 -17 1 -7 -17
19 -37 -4 -22 -38 25 -19 25 -60 64 -91 88 l-58 42 19 27 c11 15 15 27 9 27
-6 0 -23 -19 -38 -41z"/>
<path d="M360 1468 c0 -5 -8 -8 -19 -8 -10 0 -24 -7 -31 -15 -7 -9 -8 -15 -2
-15 22 0 53 -72 55 -130 l2 -58 42 -4 43 -3 0 55 c0 55 25 115 56 133 22 13
16 25 -16 32 -16 4 -30 10 -30 13 0 4 -22 7 -50 7 -27 0 -50 -3 -50 -7z"/>
<path d="M1520 1464 c-14 -7 -29 -15 -35 -17 -5 -3 0 -15 11 -28 36 -40 44
-65 44 -129 0 -53 2 -61 16 -56 9 3 29 6 45 6 28 0 29 1 29 50 0 54 28 122 57
138 15 9 14 11 -4 20 -11 6 -23 9 -26 5 -4 -3 -9 2 -13 11 -8 20 -87 21 -124
0z"/>
<path d="M985 1282 c-39 -3 -183 -54 -168 -59 7 -3 21 1 33 7 16 9 106 39 117
40 1 0 0 -13 -3 -30 -8 -38 10 -60 48 -60 42 0 68 17 68 44 0 12 2 25 5 28 6
6 91 -15 101 -25 11 -11 -106 -59 -165 -67 -60 -8 -172 9 -218 34 -15 8 -22
15 -14 16 8 0 12 3 9 6 -11 10 -78 -8 -78 -22 0 -9 8 -12 28 -8 17 3 49 -3 82
-17 42 -17 77 -22 152 -23 110 -1 109 0 32 -80 -91 -94 -170 -127 -222 -90
-24 17 -29 53 -10 72 15 15 48 16 48 2 0 -5 -7 -10 -15 -10 -20 0 -19 -36 2
-44 43 -17 54 52 12 75 -22 12 -65 -9 -76 -37 -11 -30 18 -73 56 -84 60 -16
123 8 181 70 19 21 60 64 90 96 l55 59 3 -85 c3 -120 8 -125 47 -51 19 36 40
68 47 73 7 4 0 5 -18 2 -37 -7 -57 13 -52 52 2 23 11 31 50 44 62 21 70 30 27
30 -19 0 -56 7 -84 16 -63 19 -131 30 -170 26z"/>
<path d="M1533 943 c-3 -14 -13 -23 -24 -23 -10 0 -19 -3 -20 -7 -9 -103 -30
-191 -53 -226 -12 -18 -27 -45 -35 -60 -18 -33 -136 -125 -206 -160 -174 -86
-433 -41 -569 98 -69 70 -106 155 -113 262 -6 77 -8 85 -30 94 -12 4 -23 15
-23 24 0 11 -12 15 -50 15 -38 0 -50 -4 -50 -15 0 -9 -11 -20 -24 -25 -13 -5
-26 -12 -29 -17 -3 -6 6 -96 23 -210 0 -2 20 -3 45 -3 35 0 47 -4 51 -17 3
-10 20 -46 37 -81 l30 -63 -28 -29 -28 -29 71 -71 c40 -38 76 -70 81 -70 4 0
24 13 44 29 l36 28 95 -31 96 -31 0 -57 0 -58 125 0 124 0 3 55 3 55 98 34 97
34 36 -29 c33 -26 38 -27 63 -15 29 15 131 119 131 134 0 5 -11 19 -25 32
l-24 23 24 31 c13 17 33 52 44 79 19 45 22 47 60 47 38 0 39 1 49 48 6 26 13
75 15 110 5 59 3 64 -19 72 -13 5 -24 16 -24 24 0 10 -15 15 -50 18 -46 3 -51
1 -57 -19z"/>
</g>
</svg>
