<?xml version="1.0" standalone="no"?>
<!DOCTYPE svg PUBLIC "-//W3C//DTD SVG 20010904//EN"
 "http://www.w3.org/TR/2001/REC-SVG-20010904/DTD/svg10.dtd">
<svg version="1.0" xmlns="http://www.w3.org/2000/svg"
 width="280.000000pt" height="280.000000pt" viewBox="0 0 280.000000 280.000000"
 preserveAspectRatio="xMidYMid meet">
<metadata>
Created by potrace 1.16, written by Peter Selinger 2001-2019
</metadata>
<g transform="translate(0.000000,280.000000) scale(0.100000,-0.100000)"
fill="#000000" stroke="none">
<path d="M652 1520 c-54 -22 -51 -91 5 -126 36 -23 73 -55 73 -65 0 -4 -7 -15
-16 -23 -18 -18 -54 -5 -54 19 0 9 -10 15 -25 15 -17 0 -25 -5 -25 -18 0 -30
23 -52 60 -58 47 -8 88 10 101 43 15 39 -3 73 -59 108 -54 34 -63 58 -31 76
20 10 25 9 37 -10 18 -27 52 -28 52 -2 0 40 -64 62 -118 41z"/>
<path d="M790 1508 c0 -13 8 -18 30 -18 l30 0 0 -110 0 -110 25 0 25 0 0 110
0 110 35 0 c24 0 35 5 35 14 0 11 -20 15 -90 18 -80 3 -90 1 -90 -14z"/>
<path d="M1128 1523 l-68 -4 0 -124 0 -125 75 0 c60 0 75 3 75 15 0 11 -12 15
-51 15 l-50 0 3 43 c3 42 3 42 46 45 28 2 42 8 42 18 0 10 -12 14 -45 14 -45
0 -45 0 -45 35 0 35 0 35 45 35 38 0 45 3 45 20 0 11 -1 19 -2 18 -2 -1 -33
-3 -70 -5z"/>
<path d="M1240 1358 c0 -81 2 -88 20 -88 18 0 20 7 20 68 0 72 13 100 37 81 8
-8 13 -35 13 -80 0 -62 2 -69 20 -69 18 0 20 7 20 79 0 93 -12 112 -61 94 -16
-6 -29 -8 -29 -4 0 4 -9 7 -20 7 -18 0 -20 -7 -20 -88z"/>
<path d="M1419 1433 c-21 -25 -18 -128 4 -150 14 -15 22 -16 47 -6 29 11 30
10 30 -18 0 -34 -26 -50 -44 -28 -16 20 -48 21 -44 1 5 -26 54 -45 86 -34 42
14 52 45 50 151 -3 89 -4 94 -25 97 -13 2 -23 -1 -23 -8 0 -9 -3 -9 -12 0 -17
17 -53 15 -69 -5z"/>
<path d="M1670 1358 c0 -81 2 -88 20 -88 18 0 20 7 20 68 0 72 13 100 37 81 8
-8 13 -35 13 -80 0 -62 2 -69 20 -69 18 0 20 7 20 85 0 81 -1 85 -24 91 -13 3
-34 1 -45 -6 -12 -6 -21 -7 -21 -2 0 4 -9 8 -20 8 -18 0 -20 -7 -20 -88z"/>
<path d="M1859 1431 c-20 -16 -24 -28 -24 -75 0 -66 18 -90 69 -90 33 0 76 26
76 46 0 15 -42 8 -55 -9 -17 -23 -45 -10 -45 22 0 23 3 25 50 25 49 0 50 1 50
30 0 61 -71 91 -121 51z"/>
<path d="M2032 1434 c-18 -13 -22 -25 -22 -73 0 -76 15 -96 71 -95 40 1 69 21
69 46 0 15 -48 8 -54 -7 -7 -20 -32 -19 -40 1 -14 37 -7 44 44 44 49 0 50 1
50 30 0 59 -67 90 -118 54z"/>
<path d="M2380 1358 c0 -87 0 -88 25 -88 24 0 25 2 25 75 0 68 2 75 20 75 18
0 20 -7 20 -75 0 -73 1 -75 25 -75 25 0 25 1 25 78 0 47 -5 83 -12 90 -15 15
-54 16 -63 2 -4 -6 -12 -7 -18 -3 -6 4 -20 8 -29 8 -16 2 -18 -8 -18 -87z"/>
<path d="M2566 1434 c-11 -10 -16 -34 -16 -74 0 -40 5 -64 16 -74 17 -18 50
-21 59 -6 18 29 33 -6 19 -44 -7 -17 -44 -22 -44 -6 0 6 -11 10 -25 10 -17 0
-23 -4 -19 -14 8 -20 59 -39 83 -31 45 14 51 31 51 140 0 93 -2 103 -20 108
-10 3 -21 0 -23 -7 -3 -8 -8 -8 -18 2 -18 17 -44 15 -63 -4z"/>
</g>
</svg>
